<svg aria-hidden="true" style="position: absolute; width: 0; height: 0; overflow: hidden;" version="1.1" xmlns="http://www.w3.org/2000/svg" xmlns:xlink="http://www.w3.org/1999/xlink">
<defs>
<symbol id="icon-creative-commons-noncommercial-us" viewBox="0 0 20 20">
<path d="M9.988 0.4c2.691 0 4.966 0.928 6.825 2.784s2.787 4.128 2.787 6.816-0.913 4.936-2.739 6.744c-1.939 1.904-4.23 2.856-6.873 2.856-2.611 0-4.862-0.944-6.752-2.832s-2.835-4.144-2.835-6.768 0.945-4.896 2.835-6.816c1.842-1.856 4.093-2.784 6.752-2.784zM2.56 7.421c-0.287 0.81-0.43 1.67-0.43 2.579 0 2.128 0.777 3.968 2.331 5.52s3.404 2.328 5.551 2.328c2.147 0 4.013-0.784 5.599-2.352 0.531-0.513 0.968-1.073 1.311-1.68l-3.619-1.612c-0.246 1.218-1.331 2.040-2.643 2.137v1.48h-1.102v-1.48c-1.078-0.012-2.118-0.453-2.914-1.15l1.322-1.333c0.637 0.599 1.273 0.869 2.143 0.869 0.563 0 1.188-0.22 1.188-0.954 0-0.26-0.101-0.441-0.26-0.577l-2.055-0.915c-0.564-0.251-1.041-0.464-1.521-0.677l-4.903-2.183zM10.012 2.128c-2.179 0-4.021 0.768-5.527 2.304-0.41 0.413-0.766 0.846-1.069 1.296l3.67 1.634c0.332-1.018 1.299-1.635 2.474-1.704v-1.48h1.102v1.48c0.759 0.037 1.592 0.245 2.412 0.881l-1.261 1.296c-0.465-0.33-1.053-0.563-1.641-0.563-0.477 0-1.151 0.147-1.151 0.746 0 0.091 0.030 0.172 0.086 0.244l2.058 0.917c0.531 0.236 1.039 0.462 1.542 0.686l4.919 2.19c0.163-0.645 0.244-1.33 0.244-2.055 0-2.192-0.769-4.048-2.307-5.568-1.522-1.536-3.372-2.304-5.551-2.304z"></path>
</symbol>
<symbol id="icon-address" viewBox="0 0 20 20">
<path d="M19.799 5.165l-2.375-1.83c-0.135-0.093-0.324-0.176-0.521-0.237-0.198-0.061-0.403-0.098-0.567-0.098h-6.836l0.801 5h6.035c0.164 0 0.369-0.037 0.566-0.098s0.387-0.145 0.521-0.236l2.375-1.832c0.135-0.091 0.202-0.212 0.202-0.334s-0.067-0.243-0.201-0.335zM8.5 1h-1c-0.276 0-0.5 0.224-0.5 0.5v3.5h-3.336c-0.166 0-0.37 0.037-0.567 0.099-0.198 0.060-0.387 0.143-0.521 0.236l-2.375 1.83c-0.135 0.091-0.201 0.213-0.201 0.335s0.066 0.242 0.201 0.335l2.375 1.832c0.134 0.091 0.323 0.175 0.521 0.235s0.401 0.098 0.567 0.098h3.336v8.5c0 0.276 0.224 0.5 0.5 0.5h1c0.276 0 0.5-0.224 0.5-0.5v-17c0-0.276-0.224-0.5-0.5-0.5z"></path>
</symbol>
<symbol id="icon-area-graph" viewBox="0 0 20 20">
<path d="M20 2v16h-19.68c-0.318 0-0.416-0.209-0.216-0.465l4.469-5.748c0.199-0.256 0.553-0.283 0.789-0.062l1.419 1.334c0.235 0.221 0.572 0.178 0.747-0.096l3.047-4.74c0.175-0.273 0.509-0.312 0.741-0.090l2.171 2.096c0.232 0.225 0.559 0.18 0.724-0.1l5.133-7.785c0.166-0.282 0.406-0.344 0.656-0.344z"></path>
</symbol>
<symbol id="icon-block" viewBox="0 0 20 20">
<path d="M10 0.4c-5.303 0-9.601 4.298-9.601 9.6 0 5.303 4.298 9.601 9.601 9.601 5.301 0 9.6-4.298 9.6-9.601s-4.299-9.6-9.6-9.6zM2.399 10c0-4.197 3.402-7.6 7.6-7.6 1.829 0 3.506 0.647 4.817 1.723l-10.694 10.694c-1.076-1.312-1.723-2.988-1.723-4.817zM9.999 17.599c-1.828 0-3.505-0.646-4.815-1.722l10.694-10.693c1.075 1.312 1.722 2.987 1.722 4.816 0 4.197-3.404 7.599-7.601 7.599z"></path>
</symbol>
<symbol id="icon-circle-with-plus" viewBox="0 0 20 20">
<path d="M10 1.6c-4.639 0-8.4 3.761-8.4 8.4s3.761 8.4 8.4 8.4 8.4-3.761 8.4-8.4c0-4.639-3.761-8.4-8.4-8.4zM15 11h-4v4h-2v-4h-4v-2h4v-4h2v4h4v2z"></path>
</symbol>
<symbol id="icon-emoji-happy" viewBox="0 0 20 20">
<path d="M10 0.4c-5.302 0-9.6 4.298-9.6 9.6s4.298 9.6 9.6 9.6c5.301 0 9.6-4.298 9.6-9.601 0-5.301-4.299-9.599-9.6-9.599zM10 17.599c-4.197 0-7.6-3.402-7.6-7.6s3.402-7.599 7.6-7.599c4.197 0 7.601 3.402 7.601 7.6s-3.404 7.599-7.601 7.599zM7.501 9.75c0.828 0 1.499-0.783 1.499-1.75s-0.672-1.75-1.5-1.75-1.5 0.783-1.5 1.75 0.672 1.75 1.501 1.75zM12.5 9.75c0.829 0 1.5-0.783 1.5-1.75s-0.672-1.75-1.5-1.75-1.5 0.784-1.5 1.75 0.672 1.75 1.5 1.75zM14.341 11.336c-0.363-0.186-0.815-0.043-1.008 0.32-0.034 0.066-0.869 1.593-3.332 1.593-2.451 0-3.291-1.513-3.333-1.592-0.188-0.365-0.632-0.514-1.004-0.329-0.37 0.186-0.52 0.636-0.335 1.007 0.050 0.099 1.248 2.414 4.672 2.414 3.425 0 4.621-2.316 4.67-2.415 0.184-0.367 0.036-0.81-0.33-0.998z"></path>
</symbol>
</defs>
</svg>
