<?xml version="1.0" encoding="UTF-8"?>
<svg id="Warstwa_1" data-name="Warstwa 1" xmlns="http://www.w3.org/2000/svg" version="1.1" viewBox="0 0 595.3 595.3">
  <defs>
    <style>
      .cls-1 {
        fill: #2f52a0;
      }

      .cls-1, .cls-2, .cls-3 {
        stroke-width: 0px;
      }

      .cls-2 {
        fill: #f39200;
      }

      .cls-3 {
        fill: #fff;
      }
    </style>
  </defs>
  <g>
    <path class="cls-1" d="M164.7,388.8l-71.1-39.2v-132.6h142.3v132.6l-71.1,39.2ZM98.5,346.7l66.3,36.5,66.3-36.5v-124.9H98.5v124.9Z"/>
    <g>
      <path class="cls-1" d="M116.8,339.1v-97l8.8-8.8h26.5l8.8,8.8v121.4l-17.6-9.7v-49.9h-8.8v45l-17.6-9.8ZM143.2,286.2v-35.3h-8.8v35.3h8.8Z"/>
      <path class="cls-1" d="M168.6,363.2v-59.2h17.6v22.5l8.8-4.9v-26.5h-17.6l-8.8-8.8v-44.1l8.8-8.8h26.5l8.8,8.8v26.5h-17.6v-17.6h-8.8v26.5h17.6l8.8,8.8v52.6l-44.1,24.3Z"/>
    </g>
  </g>
  <g>
    <g>
      <g>
        <path class="cls-1" d="M294.6,288l-.8-4.9-7.1,1.1-.9,5.2-11,1.7,9.5-40.9,13-2,8.3,38.1-11,1.7ZM292.5,274.9c-.8-5.4-1.5-10.7-2-16.2-.2,1.9-.4,3.8-.6,5.6-.5,3.7-1.1,7.5-1.8,11.3l4.5-.7Z"/>
        <path class="cls-1" d="M326,283.1l-7.1-17.7.3,18.8-10.6,1.7v-39.4l10.6-1.7-.3,17.6,6.3-18.6,11.2-1.8-8.4,20.3,9.4,18.9-11.5,1.8Z"/>
        <path class="cls-1" d="M355.3,248.6v29.9l-10.6,1.7v-29.9l-5.8.9v-9.4l22.3-3.5v9.4l-5.8.9Z"/>
        <path class="cls-1" d="M383.3,257.5v16.6l-10.6,1.7v-16.6l-9.8-21.2,11.1-1.7c1.3,3.8,2.7,7.6,3.7,11.6,1.1-4.2,2.4-8.5,3.7-12.7l11-1.7-9.1,24.1Z"/>
        <path class="cls-1" d="M428.9,267l-10.2,1.6c-1.5-8-3.1-15.9-4-24-.4,3.5-.6,7-1.1,10.5l-2,14.6-10.4,1.6-8.7-38,10.5-1.6c.8,4.6,1.5,9.3,2.2,13.9.2,1.1.4,2.2.5,3.3.3,2.3.5,4.6.8,6.9.2-2.2.4-4.4.6-6.7.8-6.1,1.9-12.3,3-18.5l9.1-1.4,1.8,9.2c.9,5,1.7,10.1,2.2,15.2.4-4.4.7-8.7,1.4-13.1l1.9-12.5,10.4-1.6-8,40.6Z"/>
        <path class="cls-1" d="M457.2,262.6c-2.8-7.1-5.8-14-8-21.4.3,4.1.6,8.3.6,12.5v10l-10.2,1.6v-39.4l10.2-1.6,5.3,13c1.2,3.1,2.2,6.3,3.2,9.4-.6-4.7-1.2-9.4-1.2-14.3v-9.2l10.2-1.6v39.4l-10.2,1.6Z"/>
        <path class="cls-1" d="M490.2,257.4l-.8-4.9-7.1,1.1-.9,5.2-11,1.7,9.5-40.9,13-2,8.3,38.1-11,1.7ZM488.1,244.3c-.8-5.4-1.5-10.7-2-16.2-.2,1.9-.4,3.8-.6,5.6-.5,3.7-1.1,7.5-1.8,11.3l4.5-.7Z"/>
      </g>
      <g>
        <path class="cls-1" d="M302.3,312c-1.8-2.4-4.7-4.9-8.2-4.4-1.8.3-3.6,1.7-3.6,3.7,0,5.3,13.3,4.6,13.3,18.1s-6.5,18.5-16.4,20.1c-3.6.6-7.2.3-10.5-.6v-16.2c2.1,2.5,5.1,4.9,8.8,4.3,2-.3,4.1-1.8,4.1-4,0-5.5-13.2-5.2-13.2-18.3s6.4-18,15.7-19.4c3.5-.5,6.9,0,10,1.1v15.8Z"/>
        <path class="cls-1" d="M344.1,289.5c-5.8,13.8-11.4,27.6-17.7,41.2,5.3-1.3,10.6-2.1,15.9-3.1v12.4l-35.5,5.5v-1.1l11.1-27c2-4.9,4.3-9.6,7-14.2l-15,2.3v-12.2l34.2-5.3v1.5Z"/>
        <path class="cls-1" d="M371.9,335.3l-9.3-23.2.4,24.6-13.9,2.2v-51.6l13.9-2.2-.4,23.1,8.2-24.4,14.7-2.3-11,26.6,12.4,24.8-15,2.3Z"/>
        <path class="cls-1" d="M407.9,330.6c-5.5.9-10.6-1.1-14.1-4.7-4.5-4.7-5.8-12.6-5.8-19.5,0-12.2,5.7-27.1,19.8-29.3,14.1-2.2,19.4,11.2,19.4,23.2s-4.9,28-19.4,30.3ZM407.8,290.1c-4.8.8-5.3,11.2-5.3,14.5s.3,13.7,5.1,12.9c4.8-.7,5.2-11.1,5.2-14.4s-.2-13.7-5-13Z"/>
        <path class="cls-1" d="M433.7,325.6v-16.8l-4.1,5.4v-9.4l4.1-5.4v-25.6l13.9-2.2v16.6l6.9-8.5v9.6l-6.9,8.4v13.2l10.5-1.6v12.4l-24.5,3.8Z"/>
        <path class="cls-1" d="M486.9,317.3l-1.1-6.4-9.4,1.5-1.2,6.8-14.4,2.2,12.5-53.6,17-2.7,10.9,49.9-14.4,2.2ZM484.2,300.2c-1.1-7-2-14.1-2.6-21.3-.3,2.4-.5,5-.9,7.4-.7,4.9-1.5,9.8-2.4,14.8l5.9-.9Z"/>
      </g>
    </g>
    <g>
      <polygon class="cls-2" points="501.3 345 276.8 380.3 276.8 358.5 501.3 323.2 501.3 345"/>
      <g>
        <path class="cls-3" d="M285.4,369c-.2.5-.5,1-.7,1.5l2.1-.3v2.2l-6,.9,1.8-4.1c.2-.5.4-1,.7-1.5l-2.1.3v-2.2l6-.9-1.8,4.1Z"/>
        <path class="cls-3" d="M299.8,370.4l-.2-4.8c0-.6,0-1.3,0-1.9,0,.7-.2,1.4-.3,2.1l-.9,4.9-2.3.4-.8-5c0-.5-.1-1.1-.2-1.6,0,.8,0,1.6,0,2.4l-.3,4.5-3.1.5,1.2-10.8,3.6-.6c.3,1.8.7,3.6.8,5.5.2-1.9.6-3.9,1-5.8l3.5-.6,1,10.5-3,.5Z"/>
        <path class="cls-3" d="M305.4,361.4c-.9.1-1.6-.5-1.6-1.4s.7-1.7,1.6-1.8c.9-.1,1.6.5,1.6,1.3s-.7,1.7-1.6,1.9ZM304,369.8v-7.4l2.8-.4v7.4l-2.8.4Z"/>
        <path class="cls-3" d="M311.8,368.5v-3.9c0-.3,0-.9-.4-.8-.5,0-.6.8-.6,1.2v3.7l-2.8.4v-7.4l2.8-.4c0,.5,0,.9,0,1.4.4-.9,1-1.7,2-1.9,1.4-.2,1.9,1,1.9,2.2v5.1l-2.8.4Z"/>
        <path class="cls-3" d="M317.2,359.5c-.9.1-1.6-.5-1.6-1.4s.7-1.7,1.6-1.8c.9-.1,1.6.5,1.6,1.3s-.7,1.7-1.6,1.9ZM315.8,367.9v-7.4l2.8-.4v7.4l-2.8.4Z"/>
        <path class="cls-3" d="M324.2,361.6c-.3-.2-.7-.5-1.1-.5-.2,0-.4.2-.4.4,0,.9,2.6.2,2.6,2.4s-1.4,2.8-3,3.1c-1,.2-1.8,0-2.6-.4l1-2.2c.3.3.9.6,1.4.6.2,0,.5-.2.5-.5,0-.8-2.7-.1-2.7-2.3s1.6-2.8,3.1-3c.8-.1,1.5,0,2.2.3l-1,2.2Z"/>
        <path class="cls-3" d="M329.3,360.6v5.2l-2.8.4v-5.2h-.8c0,.1,0-2.1,0-2.1h.8v-2.3l2.8-.4v2.2h.9c0-.1,0,2.1,0,2.1h-.9Z"/>
        <path class="cls-3" d="M337.5,362c-.4,1.8-1.6,2.9-3.3,3.2-2.3.4-3.4-1.1-3.4-3.2s1.2-4.2,3.5-4.5c2.3-.4,3.3,1.3,3.3,3.4s0,.3,0,.5l-4.1.6c0,.4,0,1.1.6,1,.3,0,.6-.3.6-.6l2.7-.4ZM334.8,360.3c0-.4-.2-.9-.7-.8-.5,0-.6.6-.6,1l1.3-.2Z"/>
        <path class="cls-3" d="M343.3,359.1c-.2-.1-.5-.2-.8-.1-.3,0-.7.3-.9.6-.3.4-.3.8-.3,1.2v3.2l-2.8.4v-7.4l2.8-.4v1.5c.2-1,.8-1.7,1.9-2v3.1Z"/>
        <path class="cls-3" d="M348.4,357.8c-.3-.2-.7-.5-1.1-.5-.2,0-.4.2-.4.4,0,.9,2.6.2,2.6,2.4s-1.4,2.8-3,3.1c-1,.2-1.8,0-2.6-.4l1-2.2c.3.3.9.6,1.4.6.2,0,.5-.2.5-.5,0-.8-2.7-.1-2.7-2.3s1.6-2.8,3.1-3c.8-.1,1.5,0,2.2.3l-1,2.2Z"/>
        <path class="cls-3" d="M353.5,356.8v5.2l-2.8.4v-5.2h-.8c0,.1,0-2.1,0-2.1h.8v-2.3l2.8-.4v2.2h.9c0-.1,0,2.1,0,2.1h-.9Z"/>
        <path class="cls-3" d="M363.6,360.4l-2.7.4-.6-4.4-.8,4.6-2.7.4-1.9-7.2,2.7-.4c.3,1.5.6,2.9.7,4.4.1-1.5.5-3.1.8-4.6l2.4-.4c.3,1.5.5,2.9.7,4.4.2-1.5.5-3.1.8-4.6l2.8-.4-2.2,7.8Z"/>
        <path class="cls-3" d="M372.7,356.5c-.4,1.8-1.6,2.9-3.3,3.2-2.3.4-3.4-1.1-3.4-3.2s1.2-4.2,3.5-4.5c2.3-.4,3.3,1.3,3.3,3.4s0,.3,0,.5l-4.1.6c0,.4,0,1.1.6,1,.3,0,.6-.3.6-.6l2.7-.4ZM370.1,354.8c0-.4-.2-.9-.7-.8-.5,0-.6.6-.6,1l1.3-.2Z"/>
        <path class="cls-3" d="M381.6,357.6v-4.1c0-.3,0-.8-.4-.7-.6,0-.6.8-.6,1.3v3.8l-2.8.4v-4.1c0-.3,0-.8-.4-.7-.6,0-.6.8-.6,1.3v3.7l-2.8.4v-7.4l2.8-.4v.4c0,.3,0,.6,0,.9.4-.9.9-1.5,1.9-1.7,1.1-.2,1.6.4,2,1.2.3-1,.8-1.7,1.9-1.8.5,0,1,0,1.3.3.6.4.7,1.2.7,1.9v5.1l-2.8.4Z"/>
        <path class="cls-3" d="M394.4,348.6c-.4-.5-1-1-1.7-.9-.4,0-.8.4-.8.8,0,1.1,2.7.9,2.7,3.7s-1.3,3.8-3.4,4.1c-.7.1-1.5,0-2.2-.1v-3.3c.4.5,1.1,1,1.8.9.4,0,.8-.4.8-.8,0-1.1-2.7-1.1-2.7-3.8s1.3-3.7,3.2-4c.7-.1,1.4,0,2.1.2v3.3Z"/>
        <path class="cls-3" d="M398.4,348.6c.4-.8.8-1.3,1.7-1.5,1.9-.3,2.4,2,2.4,3.5s-.4,3.9-2.4,4.2c-.9.1-1.3-.3-1.8-.9,0,.4,0,.8,0,1.2v3.2l-2.8.4v-10.9l2.8-.4v1.1ZM399.1,349.6c-.6,0-.6,1.2-.6,1.7s0,1.6.6,1.5c.6,0,.7-1.3.7-1.8s0-1.5-.7-1.4Z"/>
        <path class="cls-3" d="M406.8,353.8c-2.3.4-3.4-1.2-3.4-3.3s1.2-4.1,3.4-4.4c2.4-.4,3.5,1.2,3.5,3.4s-1.2,4-3.5,4.4ZM406.9,348.2c-.7.1-.8,1.4-.8,1.9s0,1.8.8,1.7c.7-.1.8-1.4.8-1.9s-.1-1.8-.8-1.7Z"/>
        <path class="cls-3" d="M416.1,347.7c-.2-.1-.5-.2-.8-.1-.3,0-.7.3-.9.6-.3.4-.3.8-.3,1.2v3.2l-2.8.4v-7.4l2.8-.4v1.5c.2-1,.8-1.7,1.9-2v3.1Z"/>
        <path class="cls-3" d="M420.3,346.4v5.2l-2.8.4v-5.2h-.8c0,.1,0-2.1,0-2.1h.8v-2.3l2.8-.4v2.2h.9c0-.1,0,2.1,0,2.1h-.9Z"/>
        <path class="cls-3" d="M428.7,347.4c0,1-.2,1.8-1.1,2.5-.7.6-1.5.9-2.3,1-.8.1-1.6,0-2.3-.3-.8-.5-1.1-1.2-1.1-2.2v-4.6l2.8-.4v4.4c0,.4,0,.9.6.8.6,0,.6-.7.6-1.2v-4.2l2.8-.4v4.6Z"/>
        <path class="cls-3" d="M435.1,341.1c-.9.1-1.6-.5-1.6-1.4s.7-1.7,1.6-1.8c.9-.1,1.6.5,1.6,1.3s-.7,1.7-1.6,1.9ZM433.7,349.5v-7.4l2.8-.4v7.4l-2.8.4Z"/>
        <path class="cls-3" d="M445.2,339.6v8.1l-2.9.4v-8.1l-1.6.2v-2.6l6-.9v2.6l-1.6.2Z"/>
        <path class="cls-3" d="M453.9,343.5c0,1-.2,1.8-1.1,2.5-.7.6-1.5.9-2.3,1-.8.1-1.6,0-2.3-.3-.8-.5-1.1-1.2-1.1-2.2v-4.6l2.8-.4v4.4c0,.4,0,.9.6.8.6,0,.6-.7.6-1.2v-4.2l2.8-.4v4.6Z"/>
        <path class="cls-3" d="M459.9,340.9c-.2-.1-.5-.2-.8-.1-.3,0-.7.3-.9.6-.3.4-.3.8-.3,1.2v3.2l-2.8.4v-7.4l2.8-.4v1.5c.2-1,.8-1.7,1.9-2v3.1Z"/>
        <path class="cls-3" d="M464,348.2l-2.8.4,1.3-3.9-2.2-6.8,2.8-.4c.4,1.3.7,2.7.9,4.1.1-.9.2-1.8.4-2.7l.4-1.7,2.8-.4-3.5,11.4Z"/>
        <path class="cls-3" d="M472.3,338.5c-.3-.2-.7-.5-1.1-.5-.2,0-.4.2-.4.4,0,.9,2.6.2,2.6,2.4s-1.4,2.8-3,3.1c-1,.2-1.8,0-2.6-.4l1-2.2c.3.3.9.6,1.4.6.2,0,.5-.2.5-.5,0-.8-2.7-.1-2.7-2.3s1.6-2.8,3.1-3c.8-.1,1.5,0,2.2.3l-1,2.2Z"/>
        <path class="cls-3" d="M477.4,337.4v5.2l-2.8.4v-5.2h-.8c0,.1,0-2.1,0-2.1h.8v-2.3l2.8-.4v2.2h.9c0-.1,0,2.1,0,2.1h-.9Z"/>
        <path class="cls-3" d="M482.5,345.3l-2.8.4,1.3-3.9-2.2-6.8,2.8-.4c.4,1.3.7,2.7.9,4.1.1-.9.2-1.8.4-2.7l.4-1.7,2.8-.4-3.5,11.4Z"/>
        <path class="cls-3" d="M490.7,340.6c-.5-1.2-1-2.1-1.3-3.4v3.6l-2.8.4v-11.6l2.8-.4v7.4c.4-1.2.9-2.3,1.3-3.5l3-.5-1.8,3.7,2,3.7-3.2.5Z"/>
        <path class="cls-3" d="M495.9,331.6c-.9.1-1.6-.5-1.6-1.4s.7-1.7,1.6-1.8c.9-.1,1.6.5,1.6,1.3s-.7,1.7-1.6,1.9ZM494.6,340v-7.4l2.8-.4v7.4l-2.8.4Z"/>
      </g>
    </g>
  </g>
</svg>